<?xml version="1.0" encoding="iso-8859-1"?>
<!-- Generator: Adobe Illustrator 19.0.0, SVG Export Plug-In . SVG Version: 6.00 Build 0)  -->
<svg version="1.1" id="Layer_1" xmlns="http://www.w3.org/2000/svg" xmlns:xlink="http://www.w3.org/1999/xlink" x="0px" y="0px"
	 viewBox="0 0 512 512" style="enable-background:new 0 0 512 512;" xml:space="preserve">
<g>
	<g>
		<path d="M494.933,110.64h-189.44V47.494c0-6.827-3.413-11.947-10.24-15.36c-5.12-1.707-11.946-1.707-17.067,1.706L6.827,242.054
			C1.707,245.467,0,250.588,0,255.707c0,5.119,1.707,10.24,6.827,13.653l271.36,208.213c3.413,1.706,6.827,3.413,10.24,3.413
			c3.413,0,5.12,0,6.827-1.707c5.12-3.413,10.24-8.534,10.24-15.36v-63.147h189.44c10.24,0,17.067-6.827,17.067-17.067v-256
			C512,119.174,503.467,110.64,494.933,110.64z M477.867,366.64h-189.44c-10.24,0-17.067,6.827-17.067,17.067v46.08L44.373,255.707
			L271.36,83.333v46.081c0,10.24,6.827,17.067,17.067,17.067h189.44V366.64z"/>
	</g>
</g>
<g>
</g>
<g>
</g>
<g>
</g>
<g>
</g>
<g>
</g>
<g>
</g>
<g>
</g>
<g>
</g>
<g>
</g>
<g>
</g>
<g>
</g>
<g>
</g>
<g>
</g>
<g>
</g>
<g>
</g>
</svg>
